<svg width="25" height="30" viewBox="0 0 25 32" fill="none" xmlns="http://www.w3.org/2000/svg">
<mask id="path-1-inside-1_4_104" fill="white">
<rect width="24.5217" height="31.1237" rx="2"/>
</mask>
<rect width="24.5217" height="31.1237" rx="2" stroke="#EFB810" stroke-width="8" mask="url(#path-1-inside-1_4_104)"/>
<path d="M10.4088 19.3549V19.1134C10.4136 18.2848 10.487 17.6243 10.629 17.1319C10.7758 16.6395 10.9889 16.2417 11.2682 15.9387C11.5476 15.6357 11.8837 15.3611 12.2767 15.1148C12.5703 14.9255 12.8331 14.729 13.0651 14.5254C13.2971 14.3218 13.4818 14.0969 13.6191 13.8506C13.7564 13.5997 13.825 13.3203 13.825 13.0126C13.825 12.6859 13.7469 12.3994 13.5907 12.1532C13.4344 11.907 13.2237 11.7176 12.9586 11.585C12.6981 11.4524 12.4093 11.3862 12.0921 11.3862C11.7843 11.3862 11.4931 11.4548 11.2185 11.5921C10.9439 11.7247 10.719 11.9236 10.5438 12.1887C10.3686 12.4491 10.2739 12.7735 10.2597 13.1617H7.36196C7.38564 12.2148 7.61291 11.4335 8.04378 10.818C8.47465 10.1977 9.0452 9.73606 9.75543 9.43303C10.4657 9.12526 11.2493 8.97138 12.1063 8.97138C13.0485 8.97138 13.8819 9.12763 14.6063 9.44013C15.3307 9.74789 15.8989 10.1953 16.3108 10.7825C16.7228 11.3696 16.9287 12.0774 16.9287 12.906C16.9287 13.46 16.8364 13.9524 16.6517 14.3833C16.4718 14.8094 16.2185 15.1882 15.8918 15.5197C15.5651 15.8464 15.1792 16.1423 14.7341 16.4075C14.3601 16.63 14.0523 16.862 13.8108 17.1035C13.5741 17.345 13.3965 17.6243 13.2782 17.9416C13.1645 18.2588 13.1053 18.6494 13.1006 19.1134V19.3549H10.4088ZM11.8151 23.9004C11.3416 23.9004 10.9368 23.7346 10.6006 23.4032C10.2692 23.067 10.1058 22.6646 10.1105 22.1958C10.1058 21.7318 10.2692 21.3341 10.6006 21.0026C10.9368 20.6712 11.3416 20.5055 11.8151 20.5055C12.2649 20.5055 12.6603 20.6712 13.0012 21.0026C13.3421 21.3341 13.5149 21.7318 13.5196 22.1958C13.5149 22.5083 13.432 22.7948 13.2711 23.0552C13.1148 23.3109 12.9088 23.5168 12.6532 23.6731C12.3975 23.8246 12.1181 23.9004 11.8151 23.9004Z" fill="#EFB810"/>
</svg>
