<svg width="488" height="205" viewBox="0 0 488 205" fill="none" xmlns="http://www.w3.org/2000/svg">
<path d="M0 0.5L365 49.5L487.5 179.56L112 205L0 0.5Z" fill="#222B8D"/>
<path d="M66.7618 46.7773C66.7618 48.8227 67.5206 50.3072 69.0381 51.2309C70.5557 52.3526 73.7886 53.5072 78.7371 54.6949C83.9495 55.9485 87.7433 57.6639 90.1185 59.8412C92.5598 62.0186 93.7804 65.1526 93.7804 69.2433C93.7804 73.532 92.1639 76.9959 88.9309 79.6351C85.7639 82.2742 81.6072 83.5938 76.4608 83.5938C69.0051 83.5938 62.2752 80.9546 56.2711 75.6763L61.4175 69.5402C66.4319 73.8289 71.5124 75.9732 76.6587 75.9732C79.2319 75.9732 81.3103 75.4124 82.8938 74.2907C84.4773 73.1031 85.2691 71.5856 85.2691 69.7382C85.2691 67.8907 84.5433 66.4392 83.0917 65.3835C81.7062 64.3278 79.199 63.3711 75.5701 62.5134C69.302 61.0619 64.9474 59.3464 62.5062 57.367C59.6691 55.1897 58.2505 51.8577 58.2505 47.3711C58.2505 43.0165 59.834 39.6186 63.001 37.1773C66.168 34.6701 70.2258 33.4165 75.1742 33.4165C81.8381 33.4165 87.5453 35.3629 92.2959 39.2557L87.9412 45.3918C86.4897 44.0722 84.5433 43.0165 82.102 42.2247C79.6608 41.367 77.2526 40.9381 74.8773 40.9381C72.4361 40.9381 70.4567 41.466 68.9392 42.5217C67.4876 43.5114 66.7618 44.9299 66.7618 46.7773Z" fill="white"/>
<path d="M128.308 83H120.589V31.6351H128.308V52.8144C129.43 50.5711 131.112 48.8227 133.356 47.5691C135.599 46.2495 138.007 45.5897 140.58 45.5897C144.869 45.5897 148.267 46.8763 150.774 49.4495C153.282 52.0227 154.535 55.6845 154.535 60.4351V83H146.717V62.8103C146.717 56.0144 143.912 52.6165 138.304 52.6165C135.467 52.6165 133.092 53.5402 131.178 55.3876C129.265 57.1691 128.308 59.7093 128.308 63.0083V83Z" fill="white"/>
<path d="M199.991 76.666C203.356 76.666 206.127 75.5443 208.305 73.301C210.548 71.0577 211.67 68.1546 211.67 64.5918C211.67 61.0289 210.548 58.1258 208.305 55.8825C206.127 53.6392 203.356 52.5175 199.991 52.5175C196.626 52.5175 193.855 53.6392 191.678 55.8825C189.5 58.1258 188.412 61.0289 188.412 64.5918C188.412 68.1546 189.5 71.0248 191.678 73.2021C193.855 75.5114 196.626 76.666 199.991 76.666ZM199.991 83.5938C194.449 83.5938 189.83 81.7794 186.136 78.1505C182.441 74.4557 180.593 69.9361 180.593 64.5918C180.593 59.2474 182.441 54.7608 186.136 51.132C189.83 47.4371 194.449 45.5897 199.991 45.5897C205.533 45.5897 210.152 47.4371 213.847 51.132C217.542 54.7608 219.389 59.2474 219.389 64.5918C219.389 69.7382 217.542 74.2247 213.847 78.0516C210.152 81.7464 205.533 83.5938 199.991 83.5938Z" fill="white"/>
<path d="M263.142 83H254.235L241.567 46.1835H249.583L258.688 73.9938L267.892 46.1835H275.909L285.014 73.9938L294.218 46.1835H302.235L289.468 83H280.56L271.851 57.7629L263.142 83Z" fill="white"/>
<path d="M379.936 94.7966L370.976 94.8454C370.813 94.8454 370.732 94.764 370.732 94.6013L370.829 60.2507C370.829 60.1205 370.895 60.0554 371.025 60.0554L380.375 60.0065C382.231 59.9577 383.907 60.3809 385.405 61.2761C386.918 62.1712 388.123 63.3838 389.018 64.9138C389.929 66.4274 390.385 68.1039 390.385 69.9431V84.2985C390.385 86.2191 389.921 87.9769 388.994 89.572C388.05 91.1507 386.796 92.4121 385.234 93.3561C383.671 94.2839 381.905 94.764 379.936 94.7966ZM380.375 65.988L376.884 66.0368L376.835 88.6931H379.936C381.173 88.6931 382.215 88.2617 383.061 87.3991C383.907 86.5365 384.33 85.503 384.33 84.2985V69.8942C384.33 68.8363 383.94 67.9167 383.159 67.1354C382.377 66.3379 381.45 65.9554 380.375 65.988Z" fill="white"/>
<path d="M403.569 95.3337C401.795 95.3337 400.159 94.878 398.661 93.9665C397.18 93.055 395.984 91.8425 395.073 90.3288C394.177 88.7988 393.73 87.1224 393.73 85.2995L393.779 69.4548C393.779 67.5993 394.226 65.931 395.121 64.4499C396 62.9525 397.189 61.7562 398.686 60.861C400.183 59.9496 401.811 59.4938 403.569 59.4938C405.392 59.4938 407.027 59.9414 408.476 60.8366C409.941 61.7318 411.113 62.9362 411.992 64.4499C412.887 65.9473 413.334 67.6156 413.334 69.4548L413.383 85.2995C413.383 87.1224 412.944 88.7907 412.065 90.3044C411.17 91.8343 409.981 93.055 408.5 93.9665C407.019 94.878 405.375 95.3337 403.569 95.3337ZM403.569 89.3034C404.578 89.3034 405.457 88.8965 406.205 88.0827C406.954 87.2526 407.328 86.3249 407.328 85.2995L407.28 69.4548C407.28 68.348 406.93 67.4121 406.23 66.6472C405.53 65.8822 404.643 65.4997 403.569 65.4997C402.543 65.4997 401.664 65.874 400.932 66.6227C400.2 67.3714 399.833 68.3155 399.833 69.4548V85.2995C399.833 86.39 400.2 87.334 400.932 88.1315C401.664 88.9128 402.543 89.3034 403.569 89.3034Z" fill="white"/>
<path d="M57.7188 106.291H79.8352L95.0483 143.365H95.8153L111.028 106.291H133.145V171.746H115.759V133.905H115.247L100.673 171.234H90.1903L75.6165 133.649H75.1051V171.746H57.7188V106.291Z" fill="#EFB810"/>
<path d="M159.336 106.291V171.746H141.566V106.291H159.336Z" fill="#EFB810"/>
<path d="M167.758 171.746V106.291H185.528V157.427H211.991V171.746H167.758Z" fill="#EFB810"/>
<path d="M219.174 171.746V106.291H236.944V131.859H260.466V106.291H278.236V171.746H260.466V146.177H236.944V171.746H219.174Z" fill="#EFB810"/>
<path d="M303.677 171.746H284.501L306.106 106.291H330.395L352.001 171.746H332.824L318.506 124.317H317.995L303.677 171.746ZM300.097 145.922H336.148V159.217H300.097V145.922ZM309.557 99.899H300.864C300.864 95.2967 301.919 91.877 304.028 89.6398C306.138 87.3812 308.705 86.2413 311.731 86.22C313.393 86.22 314.799 86.4864 315.949 87.019C317.121 87.5304 318.144 88.1376 319.018 88.8408C319.891 89.5439 320.68 90.1618 321.383 90.6945C322.107 91.2058 322.853 91.4615 323.62 91.4615C324.856 91.4402 325.729 90.9927 326.241 90.1192C326.773 89.2456 327.05 88.0311 327.072 86.4757H335.637C335.573 90.9927 334.486 94.4125 332.377 96.7349C330.289 99.0574 327.753 100.24 324.77 100.283C323.108 100.304 321.692 100.048 320.52 99.5155C319.369 98.9828 318.368 98.3756 317.515 97.6937C316.684 96.9906 315.907 96.3727 315.182 95.84C314.458 95.3074 313.691 95.041 312.881 95.041C311.858 95.041 311.049 95.4565 310.452 96.2875C309.856 97.0971 309.557 98.301 309.557 99.899Z" fill="#EFB810"/>
<path d="M418.638 139.018C418.638 146.305 417.221 152.452 414.387 157.459C411.553 162.445 407.729 166.227 402.913 168.805C398.098 171.362 392.729 172.64 386.805 172.64C380.839 172.64 375.449 171.351 370.633 168.773C365.839 166.174 362.025 162.381 359.192 157.395C356.379 152.388 354.973 146.263 354.973 139.018C354.973 131.731 356.379 125.595 359.192 120.609C362.025 115.602 365.839 111.82 370.633 109.263C375.449 106.685 380.839 105.396 386.805 105.396C392.729 105.396 398.098 106.685 402.913 109.263C407.729 111.82 411.553 115.602 414.387 120.609C417.221 125.595 418.638 131.731 418.638 139.018ZM400.356 139.018C400.356 135.098 399.834 131.795 398.79 129.111C397.768 126.405 396.244 124.359 394.22 122.974C392.217 121.568 389.746 120.865 386.805 120.865C383.865 120.865 381.383 121.568 379.358 122.974C377.356 124.359 375.832 126.405 374.788 129.111C373.765 131.795 373.254 135.098 373.254 139.018C373.254 142.939 373.765 146.252 374.788 148.958C375.832 151.643 377.356 153.688 379.358 155.094C381.383 156.479 383.865 157.172 386.805 157.172C389.746 157.172 392.217 156.479 394.22 155.094C396.244 153.688 397.768 151.643 398.79 148.958C399.834 146.252 400.356 142.939 400.356 139.018Z" fill="#EFB810"/>
</svg>

