<svg width="30" height="30" viewBox="0 0 30 30" fill="none" xmlns="http://www.w3.org/2000/svg">
<path d="M14.6667 3.66667C16.6833 3.66667 18.3333 5.31667 18.3333 7.33333C18.3333 9.35 16.6833 11 14.6667 11C12.65 11 11 9.35 11 7.33333C11 5.31667 12.65 3.66667 14.6667 3.66667ZM14.6667 22C19.6167 22 25.3 24.365 25.6667 25.6667H3.66667C4.08833 24.3467 9.735 22 14.6667 22ZM14.6667 0C10.615 0 7.33333 3.28167 7.33333 7.33333C7.33333 11.385 10.615 14.6667 14.6667 14.6667C18.7183 14.6667 22 11.385 22 7.33333C22 3.28167 18.7183 0 14.6667 0ZM14.6667 18.3333C9.77167 18.3333 0 20.79 0 25.6667V29.3333H29.3333V25.6667C29.3333 20.79 19.5617 18.3333 14.6667 18.3333Z" fill="#EFB810"/>
</svg>
